<svg width="496.025px" height="121.60000610351562px" xmlns="http://www.w3.org/2000/svg" viewBox="1.9875000000000114 14.199996948242188 496.025 121.60000610351562" style="background: rgba(0, 0, 0, 0);" preserveAspectRatio="xMidYMid"><defs><filter id="editing-extrusion" x="-100%" y="-100%" width="300%" height="300%"><feFlood result="color1" flood-color="#444"></feFlood><feConvolveMatrix order="8,8" divisor="1" kernelMatrix="1 0 0 0 0 0 0 0 0 1 0 0 0 0 0 0 0 0 1 0 0 0 0 0 0 0 0 1 0 0 0 0 0 0 0 0 1 0 0 0 0 0 0 0 0 1 0 0 0 0 0 0 0 0 1 0 0 0 0 0 0 0 0 1" in="SourceAlpha" result="extrude"></feConvolveMatrix><feComposite in="color1" in2="extrude" result="comp-extrude" operator="in"></feComposite><feOffset dx="4" dy="4" in="comp-extrude" result="offset-extrude"></feOffset><feMerge><feMergeNode in="offset-extrude"></feMergeNode><feMergeNode in="SourceGraphic"></feMergeNode></feMerge></filter></defs><g filter="url(#editing-extrusion)"><g transform="translate(74.60498869419098, 98.99999618530273)"><path d="M34.50-13.25L34.50-13.25L34.50-13.25Q36.16-12.03 36.16-9.44L36.16-9.44L36.16-9.44Q36.16-6.85 35.04-5.02L35.04-5.02L35.04-5.02Q33.92-3.20 31.74-1.79L31.74-1.79L31.74-1.79Q27.07 1.22 18.91 1.22L18.91 1.22L18.91 1.22Q10.75 1.22 6.30-3.04L6.30-3.04L6.30-3.04Q1.86-7.30 1.86-14.85L1.86-14.85L1.86-14.85Q1.86-25.54 7.42-33.66L7.42-33.66L7.42-33.66Q11.65-39.68 19.20-42.24L19.20-42.24L19.20-42.24Q23.10-43.52 26.94-43.52L26.94-43.52L26.94-43.52Q30.78-43.52 33.15-43.01L33.15-43.01L33.15-43.01Q35.52-42.50 37.31-41.47L37.31-41.47L37.31-41.47Q41.22-39.23 41.22-35.65L41.22-35.65L41.22-35.65Q41.22-32.38 38.14-29.95L38.14-29.95L38.14-29.95Q35.33-27.78 33.02-27.78L33.02-27.78L33.02-27.78Q30.72-27.78 29.76-28.10L29.76-28.10L29.76-28.10Q30.02-30.40 30.02-31.90L30.02-31.90L30.02-31.90Q30.02-33.41 29.95-34.50L29.95-34.50L29.95-34.50Q29.89-35.58 29.57-36.61L29.57-36.61L29.57-36.61Q28.93-38.98 26.98-38.98L26.98-38.98L26.98-38.98Q25.02-38.98 23.07-37.15L23.07-37.15L23.07-37.15Q21.12-35.33 19.46-32.26L19.46-32.26L19.46-32.26Q15.68-25.28 15.68-17.02L15.68-17.02L15.68-17.02Q15.68-13.06 17.92-10.78L17.92-10.78L17.92-10.78Q20.16-8.51 24.96-8.51L24.96-8.51L24.96-8.51Q28.54-8.51 31.94-10.88L31.94-10.88L31.94-10.88Q33.41-11.90 34.50-13.25ZM44.26-1.92L44.26-1.92L44.26-1.92Q42.75-3.58 42.08-6.21L42.08-6.21L42.08-6.21Q41.41-8.83 41.41-13.12L41.41-13.12L41.41-13.12Q41.41-17.41 42.88-21.31L42.88-21.31L42.88-21.31Q44.35-25.22 47.04-28.03L47.04-28.03L47.04-28.03Q52.54-33.92 61.63-33.92L61.63-33.92L61.63-33.92Q64.90-33.92 67.26-32.83L67.26-32.83L78.21-33.92L73.47-8.96L73.47-8.96Q73.28-8.19 73.28-6.78L73.28-6.78L73.28-6.78Q73.28-5.38 74.14-4.48L74.14-4.48L74.14-4.48Q75.01-3.58 76.29-3.46L76.29-3.46L76.29-3.46Q75.65-1.28 73.31 0L73.31 0L73.31 0Q70.98 1.28 68.35 1.28L68.35 1.28L68.35 1.28Q65.73 1.28 63.97 0.29L63.97 0.29L63.97 0.29Q62.21-0.70 61.70-2.37L61.70-2.37L61.70-2.37Q60.67-0.77 58.50 0.26L58.50 0.26L58.50 0.26Q56.32 1.28 53.41 1.28L53.41 1.28L53.41 1.28Q50.50 1.28 48.13 0.51L48.13 0.51L48.13 0.51Q45.76-0.26 44.26-1.92ZM57.76-27.90L57.76-27.90L57.76-27.90Q57.02-26.75 56.38-24.80L56.38-24.80L56.38-24.80Q55.74-22.85 54.69-17.63L54.69-17.63L54.69-17.63Q53.63-12.42 53.63-8.70L53.63-8.70L53.63-8.70Q53.63-4.99 54.21-3.90L54.21-3.90L54.21-3.90Q54.78-2.82 55.81-2.82L55.81-2.82L55.81-2.82Q57.86-2.82 59.36-4.77L59.36-4.77L59.36-4.77Q60.86-6.72 61.44-10.18L61.44-10.18L64.83-28.93L64.83-28.93Q63.49-30.08 61.92-30.08L61.92-30.08L61.92-30.08Q60.35-30.08 59.42-29.57L59.42-29.57L59.42-29.57Q58.50-29.06 57.76-27.90ZM101.70-17.98L101.70-17.98L101.70-17.98Q104-22.08 104-26.24L104-26.24L104-26.24Q104-28.99 102.02-28.99L102.02-28.99L102.02-28.99Q100.48-28.99 98.88-26.37L98.88-26.37L98.88-26.37Q97.22-23.74 96.70-20.35L96.70-20.35L93.38 0L80.13 1.28L86.66-32.64L97.22-33.92L96.06-27.46L96.06-27.46Q99.20-33.92 106.24-33.92L106.24-33.92L106.24-33.92Q109.95-33.92 111.97-32L111.97-32L111.97-32Q113.98-30.08 113.98-26.14L113.98-26.14L113.98-26.14Q113.98-22.21 111.39-19.71L111.39-19.71L111.39-19.71Q108.80-17.22 104.38-17.22L104.38-17.22L104.38-17.22Q102.46-17.22 101.70-17.98ZM147.33-22.46L147.33-22.46L147.33-22.46Q148.22-24.83 148.22-26.88L148.22-26.88L148.22-26.88Q148.22-30.66 145.15-30.66L145.15-30.66L145.15-30.66Q143.55-30.66 142.24-29.22L142.24-29.22L142.24-29.22Q140.93-27.78 140.93-25.98L140.93-25.98L140.93-25.98Q140.93-24.70 141.95-23.68L141.95-23.68L141.95-23.68Q143.42-22.27 147.20-19.97L147.20-19.97L147.20-19.97Q150.98-17.66 152.42-15.78L152.42-15.78L152.42-15.78Q153.86-13.89 153.86-11.30L153.86-11.30L153.86-11.30Q153.86-8.70 152.61-6.34L152.61-6.34L152.61-6.34Q151.36-3.97 149.12-2.30L149.12-2.30L149.12-2.30Q144.32 1.28 136.64 1.28L136.64 1.28L136.64 1.28Q132.48 1.28 129.28-0.90L129.28-0.90L129.28-0.90Q126.08-3.01 126.08-5.50L126.08-5.50L126.08-5.50Q126.08-8 127.90-9.47L127.90-9.47L127.90-9.47Q129.73-10.94 132.42-10.94L132.42-10.94L132.42-10.94Q135.10-10.94 136.77-9.92L136.77-9.92L136.77-9.92Q135.94-7.81 135.94-6.40L135.94-6.40L135.94-6.40Q135.94-2.18 139.52-2.18L139.52-2.18L139.52-2.18Q141.06-2.18 142.08-3.14L142.08-3.14L142.08-3.14Q143.10-4.10 143.10-5.76L143.10-5.76L143.10-5.76Q143.10-9.02 137.60-12.48L137.60-12.48L137.60-12.48Q133.12-15.42 132.10-16.58L132.10-16.58L132.10-16.58Q130.37-18.62 130.37-21.18L130.37-21.18L130.37-21.18Q130.37-23.74 131.58-26.18L131.58-26.18L131.58-26.18Q132.80-28.61 135.04-30.34L135.04-30.34L135.04-30.34Q139.71-33.92 147.84-33.92L147.84-33.92L147.84-33.92Q152-33.92 154.46-32.26L154.46-32.26L154.46-32.26Q156.93-30.59 156.93-27.78L156.93-27.78L156.93-27.78Q156.93-24.96 155.23-23.36L155.23-23.36L155.23-23.36Q153.54-21.76 150.46-21.76L150.46-21.76L150.46-21.76Q148.35-21.76 147.33-22.46ZM185.22-10.82L185.22-10.82L185.22-10.82Q186.82-9.73 186.82-7.33L186.82-7.33L186.82-7.33Q186.82-4.93 185.60-3.39L185.60-3.39L185.60-3.39Q184.38-1.86 182.40-0.83L182.40-0.83L182.40-0.83Q178.30 1.28 173.89 1.28L173.89 1.28L173.89 1.28Q169.47 1.28 166.88 0.32L166.88 0.32L166.88 0.32Q164.29-0.64 162.56-2.43L162.56-2.43L162.56-2.43Q159.17-5.82 159.17-12.03L159.17-12.03L159.17-12.03Q159.17-21.70 164.42-27.58L164.42-27.58L164.42-27.58Q170.05-33.92 179.84-33.92L179.84-33.92L179.84-33.92Q185.92-33.92 188.93-31.36L188.93-31.36L188.93-31.36Q191.17-29.44 191.17-26.30L191.17-26.30L191.17-26.30Q191.17-15.04 171.71-15.04L171.71-15.04L171.71-15.04Q171.46-13.38 171.46-11.97L171.46-11.97L171.46-11.97Q171.46-9.02 172.77-7.90L172.77-7.90L172.77-7.90Q174.08-6.78 176.51-6.78L176.51-6.78L176.51-6.78Q178.94-6.78 181.54-7.90L181.54-7.90L181.54-7.90Q184.13-9.02 185.22-10.82ZM172.16-17.79L172.16-17.79L172.16-17.79Q176.70-17.79 179.33-20.61L179.33-20.61L179.33-20.61Q181.95-23.30 181.95-27.58L181.95-27.58L181.95-27.58Q181.95-29.06 181.41-29.86L181.41-29.86L181.41-29.86Q180.86-30.66 179.78-30.66L179.78-30.66L179.78-30.66Q178.69-30.66 177.76-30.24L177.76-30.24L177.76-30.24Q176.83-29.82 175.87-28.42L175.87-28.42L175.87-28.42Q173.50-25.22 172.16-17.79ZM213.38-17.98L213.38-17.98L213.38-17.98Q215.68-22.08 215.68-26.24L215.68-26.24L215.68-26.24Q215.68-28.99 213.70-28.99L213.70-28.99L213.70-28.99Q212.16-28.99 210.56-26.37L210.56-26.37L210.56-26.37Q208.90-23.74 208.38-20.35L208.38-20.35L205.06 0L191.81 1.28L198.34-32.64L208.90-33.92L207.74-27.46L207.74-27.46Q210.88-33.92 217.92-33.92L217.92-33.92L217.92-33.92Q221.63-33.92 223.65-32L223.65-32L223.65-32Q225.66-30.08 225.66-26.14L225.66-26.14L225.66-26.14Q225.66-22.21 223.07-19.71L223.07-19.71L223.07-19.71Q220.48-17.22 216.06-17.22L216.06-17.22L216.06-17.22Q214.14-17.22 213.38-17.98ZM249.92-31.55L249.92-31.55L249.92-31.55Q252.03-33.92 255.68-33.92L255.68-33.92L255.68-33.92Q257.92-33.92 259.65-32.70L259.65-32.70L259.65-32.70Q261.38-31.49 261.38-29.22L261.38-29.22L261.38-29.22Q261.38-26.94 260.67-24.51L260.67-24.51L260.67-24.51Q259.97-22.08 258.88-19.58L258.88-19.58L258.88-19.58Q256.70-14.72 253.70-10.69L253.70-10.69L253.70-10.69Q249.47-4.86 245.41-1.79L245.41-1.79L245.41-1.79Q241.34 1.28 236.93 1.28L236.93 1.28L236.93 1.28Q233.34 1.28 231.17 0.45L231.17 0.45L231.17 0.45Q230.78-12.99 230.30-17.79L230.30-17.79L230.30-17.79Q229.82-22.59 229.44-25.22L229.44-25.22L229.44-25.22Q228.80-30.34 226.88-31.55L226.88-31.55L226.88-31.55Q228.35-32.83 229.79-33.38L229.79-33.38L229.79-33.38Q231.23-33.92 234.21-33.92L234.21-33.92L234.21-33.92Q237.18-33.92 239.30-31.58L239.30-31.58L239.30-31.58Q241.41-29.25 241.82-25.12L241.82-25.12L241.82-25.12Q242.24-20.99 242.24-16L242.24-16L242.24-16Q242.24-11.01 241.86-4.99L241.86-4.99L241.86-4.99Q243.84-6.40 245.95-10.69L245.95-10.69L245.95-10.69Q248.83-16.64 249.86-23.81L249.86-23.81L249.86-23.81Q250.18-25.98 250.18-28.29L250.18-28.29L250.18-28.29Q250.18-30.59 249.92-31.55ZM278.46-3.52L278.46-3.52L278.46-3.52Q276.48 1.28 270.14 1.28L270.14 1.28L270.14 1.28Q266.88 1.28 264.83-0.96L264.83-0.96L264.83-0.96Q263.10-2.94 263.10-4.93L263.10-4.93L263.10-4.93Q263.10-10.11 265.47-20.22L265.47-20.22L267.84-32.64L280.83-33.92L276.93-13.70L276.93-13.70Q275.84-8.96 275.84-7.30L275.84-7.30L275.84-7.30Q275.84-3.65 278.46-3.52ZM268.99-41.54L268.99-41.54L268.99-41.54Q268.99-44.03 271.07-45.38L271.07-45.38L271.07-45.38Q273.15-46.72 276.16-46.72L276.16-46.72L276.16-46.72Q279.17-46.72 280.99-45.38L280.99-45.38L280.99-45.38Q282.82-44.03 282.82-41.54L282.82-41.54L282.82-41.54Q282.82-39.04 280.80-37.76L280.80-37.76L280.80-37.76Q278.78-36.48 275.78-36.48L275.78-36.48L275.78-36.48Q272.77-36.48 270.88-37.76L270.88-37.76L270.88-37.76Q268.99-39.04 268.99-41.54ZM315.33-26.62L315.33-26.62L315.33-26.62Q315.33-23.94 313.09-22.27L313.09-22.27L313.09-22.27Q310.85-20.61 307.20-20.61L307.20-20.61L307.20-20.61Q305.66-20.61 304.77-21.06L304.77-21.06L304.77-21.06Q305.47-22.72 305.70-24.80L305.70-24.80L305.70-24.80Q305.92-26.88 305.92-27.46L305.92-27.46L305.92-27.46Q305.92-30.14 304.06-30.14L304.06-30.14L304.06-30.14Q302.78-30.14 301.34-28.54L301.34-28.54L301.34-28.54Q299.90-26.94 298.69-24.45L298.69-24.45L298.69-24.45Q296-18.69 296-12.86L296-12.86L296-12.86Q296-9.66 297.22-8.22L297.22-8.22L297.22-8.22Q298.43-6.78 301.12-6.78L301.12-6.78L301.12-6.78Q304.83-6.78 307.78-9.86L307.78-9.86L307.78-9.86Q308.61-10.82 309.06-11.90L309.06-11.90L309.06-11.90Q311.49-10.62 311.49-7.10L311.49-7.10L311.49-7.10Q311.49-3.52 307.52-1.15L307.52-1.15L307.52-1.15Q303.42 1.28 296.90 1.28L296.90 1.28L296.90 1.28Q283.90 1.28 283.90-12.48L283.90-12.48L283.90-12.48Q283.90-22.53 289.60-28.29L289.60-28.29L289.60-28.29Q295.10-33.92 305.22-33.92L305.22-33.92L305.22-33.92Q315.33-33.92 315.33-26.62ZM342.98-10.82L342.98-10.82L342.98-10.82Q344.58-9.73 344.58-7.33L344.58-7.33L344.58-7.33Q344.58-4.93 343.36-3.39L343.36-3.39L343.36-3.39Q342.14-1.86 340.16-0.83L340.16-0.83L340.16-0.83Q336.06 1.28 331.65 1.28L331.65 1.28L331.65 1.28Q327.23 1.28 324.64 0.32L324.64 0.32L324.64 0.32Q322.05-0.64 320.32-2.43L320.32-2.43L320.32-2.43Q316.93-5.82 316.93-12.03L316.93-12.03L316.93-12.03Q316.93-21.70 322.18-27.58L322.18-27.58L322.18-27.58Q327.81-33.92 337.60-33.92L337.60-33.92L337.60-33.92Q343.68-33.92 346.69-31.36L346.69-31.36L346.69-31.36Q348.93-29.44 348.93-26.30L348.93-26.30L348.93-26.30Q348.93-15.04 329.47-15.04L329.47-15.04L329.47-15.04Q329.22-13.38 329.22-11.97L329.22-11.97L329.22-11.97Q329.22-9.02 330.53-7.90L330.53-7.90L330.53-7.90Q331.84-6.78 334.27-6.78L334.27-6.78L334.27-6.78Q336.70-6.78 339.30-7.90L339.30-7.90L339.30-7.90Q341.89-9.02 342.98-10.82ZM329.92-17.79L329.92-17.79L329.92-17.79Q334.46-17.79 337.09-20.61L337.09-20.61L337.09-20.61Q339.71-23.30 339.71-27.58L339.71-27.58L339.71-27.58Q339.71-29.06 339.17-29.86L339.17-29.86L339.17-29.86Q338.62-30.66 337.54-30.66L337.54-30.66L337.54-30.66Q336.45-30.66 335.52-30.24L335.52-30.24L335.52-30.24Q334.59-29.82 333.63-28.42L333.63-28.42L333.63-28.42Q331.26-25.22 329.92-17.79Z" fill="#ccc"></path></g></g><style>text {
  font-size: 64px;
  font-family: Arial Black;
  dominant-baseline: central;
  text-anchor: middle;
}</style></svg>