<svg width="323.7375122070312px" height="92px" xmlns="http://www.w3.org/2000/svg" viewBox="88.13124389648439 29 323.7375122070312 92" style="background: rgba(0, 0, 0, 0);" preserveAspectRatio="xMidYMid"><defs><filter id="editing-metal-beveled"><feGaussianBlur stdDeviation="4" in="SourceAlpha" result="blur"></feGaussianBlur><feSpecularLighting surfaceScale="5" specularConstant="0.8" specularExponent="7.5" lighting-color="#fff" in="blur" result="specular"><fePointLight x="-250" y="-50" z="300"></fePointLight></feSpecularLighting><feComposite operator="in" in="specular" in2="SourceAlpha" result="comp"></feComposite><feComposite in="SourceGraphic" in2="comp" operator="arithmetic" k1="0" k2="1" k3="1" k4="0"></feComposite></filter></defs><g filter="url(#editing-metal-beveled)"><g transform="translate(137.91498231887817, 90.70999431610107)"><path d="M25.70-9.06L25.74-0.76L25.74-0.76Q22.15 0.51 18.40 0.51L18.40 0.51L18.40 0.51Q15.85 0.51 13.55-0.05L13.55-0.05L13.55-0.05Q11.24-0.62 9.22-1.85L9.22-1.85L9.22-1.85Q7.20-3.08 5.71-4.84L5.71-4.84L5.71-4.84Q4.22-6.60 3.37-9.16L3.37-9.16L3.37-9.16Q2.52-11.71 2.52-14.79L2.52-14.79L2.52-14.79Q2.52-18.64 3.77-21.75L3.77-21.75L3.77-21.75Q5.02-24.86 7.19-26.83L7.19-26.83L7.19-26.83Q9.35-28.81 12.22-29.86L12.22-29.86L12.22-29.86Q15.09-30.91 18.40-30.91L18.40-30.91L18.40-30.91Q21.88-30.91 25.45-29.78L25.45-29.78L25.41-21.96L24.57-21.96L22.00-27.81L22.00-27.81Q20.28-28.57 17.47-28.57L17.47-28.57L17.47-28.57Q15.83-28.57 14.38-28.14L14.38-28.14L14.38-28.14Q12.92-27.71 11.58-26.70L11.58-26.70L11.58-26.70Q10.23-25.70 9.26-24.17L9.26-24.17L9.26-24.17Q8.29-22.64 7.71-20.30L7.71-20.30L7.71-20.30Q7.14-17.96 7.14-15.03L7.14-15.03L7.14-15.03Q7.14-11.92 8.05-9.36L8.05-9.36L8.05-9.36Q8.96-6.81 10.54-5.16L10.54-5.16L10.54-5.16Q12.12-3.51 14.20-2.61L14.20-2.61L14.20-2.61Q16.28-1.72 18.64-1.72L18.64-1.72L18.64-1.72Q20.73-1.72 22.60-2.32L22.60-2.32L24.86-9.06L25.70-9.06ZM45.49-2.85L49.28-1.80L49.28-1.05L44.83 0.33L44.83 0.33Q43.52 0.62 42.62 0.03L42.62 0.03L42.62 0.03Q41.71-0.55 41.71-1.97L41.71-1.97L41.71-1.97Q39.05 0.51 35.46 0.51L35.46 0.51L35.46 0.51Q32.48 0.51 31.01-1.03L31.01-1.03L31.01-1.03Q29.53-2.56 29.53-4.88L29.53-4.88L29.53-4.88Q29.53-6.62 30.31-7.97L30.31-7.97L30.31-7.97Q31.09-9.31 32.30-10.11L32.30-10.11L32.30-10.11Q33.51-10.91 35.19-11.44L35.19-11.44L35.19-11.44Q36.87-11.98 38.43-12.18L38.43-12.18L38.43-12.18Q39.99-12.39 41.71-12.43L41.71-12.43L41.71-14.40L41.71-14.40Q41.71-17.27 40.81-18.40L40.81-18.40L40.81-18.40Q39.91-19.52 37.82-19.52L37.82-19.52L37.82-19.52Q36.24-19.52 34.10-19.03L34.10-19.03L31.93-14.27L30.93-14.27L30.93-20.12L30.93-20.12Q32.77-20.77 34.82-21.14L34.82-21.14L34.82-21.14Q36.87-21.51 38.43-21.51L38.43-21.51L38.43-21.51Q41.82-21.51 43.65-20.15L43.65-20.15L43.65-20.15Q45.49-18.79 45.49-15.67L45.49-15.67L45.49-2.85ZM37.18-1.89L37.18-1.89L37.18-1.89Q38.35-1.89 39.58-2.45L39.58-2.45L39.58-2.45Q40.81-3.01 41.71-4.00L41.71-4.00L41.71-10.75L41.71-10.75Q37.61-10.56 35.46-9.07L35.46-9.07L35.46-9.07Q33.30-7.59 33.30-5.29L33.30-5.29L33.30-5.29Q33.30-3.53 34.43-2.71L34.43-2.71L34.43-2.71Q35.56-1.89 37.18-1.89ZM58.92-2.32L63.76-0.84L63.76 0L51.37 0L51.37-0.84L55.15-2.32L55.15-17.72L51.37-19.20L51.37-20.04L58.51-21.51L58.92-21.08L58.92-18.56L58.92-18.56Q62.04-21.51 67.12-21.51L67.12-21.51L67.12-16.96L66.28-16.67L63.29-18.31L63.29-18.31Q62.36-18.31 61.17-17.91L61.17-17.91L61.17-17.91Q59.99-17.51 58.92-16.75L58.92-16.75L58.92-2.32ZM85.17-8.18L87.18-2.69L87.18-2.69Q90.40-1.89 92.55-1.89L92.55-1.89L92.55-1.89Q93.66-1.89 94.74-2.12L94.74-2.12L94.74-2.12Q95.81-2.36 96.66-2.93L96.66-2.93L96.66-2.93Q97.51-3.51 98.04-4.46L98.04-4.46L98.04-4.46Q98.56-5.41 98.56-6.85L98.56-6.85L98.56-6.85Q98.56-7.79 98.29-8.62L98.29-8.62L98.29-8.62Q98.03-9.45 97.32-10.27L97.32-10.27L97.32-10.27Q96.61-11.09 95.40-11.95L95.40-11.95L95.40-11.95Q94.19-12.80 92.31-13.82L92.31-13.82L92.31-13.82Q90.25-14.93 88.77-15.92L88.77-15.92L88.77-15.92Q87.28-16.92 86.31-17.99L86.31-17.99L86.31-17.99Q85.33-19.05 84.87-20.28L84.87-20.28L84.87-20.28Q84.41-21.51 84.41-23.09L84.41-23.09L84.41-23.09Q84.41-30.82 94.07-30.82L94.07-30.82L94.07-30.82Q97.49-30.82 101.29-29.86L101.29-29.86L101.29-22.76L100.45-22.76L98.23-27.97L98.23-27.97Q96.06-28.42 94.32-28.42L94.32-28.42L94.32-28.42Q91.38-28.42 89.74-27.31L89.74-27.31L89.74-27.31Q88.10-26.19 88.10-23.85L88.10-23.85L88.10-23.85Q88.10-23.03 88.33-22.29L88.33-22.29L88.33-22.29Q88.55-21.55 89.25-20.75L89.25-20.75L89.25-20.75Q89.95-19.95 91.22-19.05L91.22-19.05L91.22-19.05Q92.49-18.15 94.56-17.00L94.56-17.00L94.56-17.00Q96.61-15.89 98.14-14.95L98.14-14.95L98.14-14.95Q99.67-14.01 100.67-13.01L100.67-13.01L100.67-13.01Q101.68-12.02 102.18-10.85L102.18-10.85L102.18-10.85Q102.68-9.68 102.68-8.14L102.68-8.14L102.68-8.14Q102.68-5.68 101.86-4.03L101.86-4.03L101.86-4.03Q101.04-2.38 99.66-1.36L99.66-1.36L99.66-1.36Q98.27-0.35 96.43 0.08L96.43 0.08L96.43 0.08Q94.58 0.51 92.55 0.51L92.55 0.51L92.55 0.51Q91.36 0.51 90.35 0.44L90.35 0.44L90.35 0.44Q89.33 0.37 88.35 0.22L88.35 0.22L88.35 0.22Q87.36 0.06 86.34-0.19L86.34-0.19L86.34-0.19Q85.31-0.45 84.10-0.80L84.10-0.80L84.10-8.18L85.17-8.18ZM124.97-10.97L124.38-10.38L111.11-10.38L111.11-10.38Q111.13-8.08 111.77-6.38L111.77-6.38L111.77-6.38Q112.40-4.68 113.49-3.71L113.49-3.71L113.49-3.71Q114.58-2.75 115.88-2.30L115.88-2.30L115.88-2.30Q117.18-1.85 118.72-1.85L118.72-1.85L118.72-1.85Q120.85-1.85 123.29-3.28L123.29-3.28L123.93-2.05L123.93-2.05Q122.21-0.53 120.48-0.01L120.48-0.01L120.48-0.01Q118.76 0.51 116.57 0.51L116.57 0.51L116.57 0.51Q114.66 0.51 112.90-0.30L112.90-0.30L112.90-0.30Q111.13-1.11 109.80-2.53L109.80-2.53L109.80-2.53Q108.47-3.96 107.67-6.03L107.67-6.03L107.67-6.03Q106.87-8.10 106.87-10.50L106.87-10.50L106.87-10.50Q106.87-12.78 107.45-14.65L107.45-14.65L107.45-14.65Q108.04-16.53 109.00-17.78L109.00-17.78L109.00-17.78Q109.96-19.03 111.24-19.89L111.24-19.89L111.24-19.89Q112.53-20.75 113.87-21.13L113.87-21.13L113.87-21.13Q115.21-21.51 116.61-21.51L116.61-21.51L116.61-21.51Q118.35-21.51 119.84-20.87L119.84-20.87L119.84-20.87Q121.32-20.22 122.48-18.96L122.48-18.96L122.48-18.96Q123.64-17.70 124.31-15.65L124.31-15.65L124.31-15.65Q124.97-13.60 124.97-10.97L124.97-10.97ZM116.69-19.52L116.69-19.52L116.69-19.52Q114.33-19.52 112.93-17.66L112.93-17.66L112.93-17.66Q111.52-15.79 111.19-12.55L111.19-12.55L120.98-12.55L120.98-12.55Q120.98-15.83 119.87-17.68L119.87-17.68L119.87-17.68Q118.76-19.52 116.69-19.52ZM135.68-2.32L140.52-0.84L140.52 0L128.13 0L128.13-0.84L131.91-2.32L131.91-17.72L128.13-19.20L128.13-20.04L135.27-21.51L135.68-21.08L135.68-18.56L135.68-18.56Q138.80-21.51 143.88-21.51L143.88-21.51L143.88-16.96L143.04-16.67L140.05-18.31L140.05-18.31Q139.13-18.31 137.94-17.91L137.94-17.91L137.94-17.91Q136.75-17.51 135.68-16.75L135.68-16.75L135.68-2.32ZM158.69-21L167.38-21L167.38-20.16L164.45-18.68L164.45-18.83L157.13 0.04L154.88 0.51L146.77-18.68L143.86-20.16L143.86-21L153.91-21L153.91-20.16L150.71-18.91L156.64-4.74L161.72-18.95L158.69-20.16L158.69-21ZM176.00-2.32L179.77-0.84L179.77 0L168.43 0L168.43-0.84L172.20-2.32L172.20-17.72L168.43-19.20L168.43-20.04L175.57-21.51L176.00-21.08L176.00-2.32ZM170.83-27.69L170.83-27.69L170.83-27.69Q170.83-28.75 171.58-29.50L171.58-29.50L171.58-29.50Q172.33-30.25 173.43-30.25L173.43-30.25L173.43-30.25Q174.50-30.25 175.25-29.50L175.25-29.50L175.25-29.50Q176.00-28.75 176.00-27.69L176.00-27.69L176.00-27.69Q176.00-26.58 175.25-25.83L175.25-25.83L175.25-25.83Q174.50-25.08 173.43-25.08L173.43-25.08L173.43-25.08Q172.33-25.08 171.58-25.83L171.58-25.83L171.58-25.83Q170.83-26.58 170.83-27.69ZM192.61 0.51L192.61 0.51L192.61 0.51Q190.68 0.51 188.93-0.28L188.93-0.28L188.93-0.28Q187.17-1.07 185.84-2.47L185.84-2.47L185.84-2.47Q184.51-3.88 183.71-5.97L183.71-5.97L183.71-5.97Q182.91-8.06 182.91-10.50L182.91-10.50L182.91-10.50Q182.91-13.15 183.71-15.28L183.71-15.28L183.71-15.28Q184.51-17.41 185.91-18.76L185.91-18.76L185.91-18.76Q187.32-20.12 189.14-20.84L189.14-20.84L189.14-20.84Q190.97-21.55 193.08-21.55L193.08-21.55L193.08-21.55Q196.10-21.55 199.01-20.20L199.01-20.20L199.01-13.86L198.17-13.86L195.89-19.36L195.89-19.36Q194.66-19.65 193.45-19.65L193.45-19.65L193.45-19.65Q190.23-19.65 188.69-17.27L188.69-17.27L188.69-17.27Q187.15-14.89 187.15-10.50L187.15-10.50L187.15-10.50Q187.15-6.32 189.18-4.08L189.18-4.08L189.18-4.08Q191.21-1.85 194.76-1.85L194.76-1.85L194.76-1.85Q195.97-1.85 196.95-2.16L196.95-2.16L196.95-2.16Q197.92-2.48 199.34-3.28L199.34-3.28L199.97-1.97L199.97-1.97Q198.15-0.53 196.44-0.01L196.44-0.01L196.44-0.01Q194.74 0.51 192.61 0.51ZM221.65-10.97L221.05-10.38L207.79-10.38L207.79-10.38Q207.81-8.08 208.44-6.38L208.44-6.38L208.44-6.38Q209.08-4.68 210.16-3.71L210.16-3.71L210.16-3.71Q211.25-2.75 212.55-2.30L212.55-2.30L212.55-2.30Q213.86-1.85 215.39-1.85L215.39-1.85L215.39-1.85Q217.53-1.85 219.97-3.28L219.97-3.28L220.60-2.05L220.60-2.05Q218.88-0.53 217.16-0.01L217.16-0.01L217.16-0.01Q215.43 0.51 213.24 0.51L213.24 0.51L213.24 0.51Q211.33 0.51 209.57-0.30L209.57-0.30L209.57-0.30Q207.81-1.11 206.47-2.53L206.47-2.53L206.47-2.53Q205.14-3.96 204.34-6.03L204.34-6.03L204.34-6.03Q203.54-8.10 203.54-10.50L203.54-10.50L203.54-10.50Q203.54-12.78 204.12-14.65L204.12-14.65L204.12-14.65Q204.71-16.53 205.67-17.78L205.67-17.78L205.67-17.78Q206.64-19.03 207.92-19.89L207.92-19.89L207.92-19.89Q209.20-20.75 210.54-21.13L210.54-21.13L210.54-21.13Q211.89-21.51 213.28-21.51L213.28-21.51L213.28-21.51Q215.02-21.51 216.51-20.87L216.51-20.87L216.51-20.87Q218.00-20.22 219.16-18.96L219.16-18.96L219.16-18.96Q220.32-17.70 220.98-15.65L220.98-15.65L220.98-15.65Q221.65-13.60 221.65-10.97L221.65-10.97ZM213.36-19.52L213.36-19.52L213.36-19.52Q211.00-19.52 209.60-17.66L209.60-17.66L209.60-17.66Q208.20-15.79 207.87-12.55L207.87-12.55L217.65-12.55L217.65-12.55Q217.65-15.83 216.54-17.68L216.54-17.68L216.54-17.68Q215.43-19.52 213.36-19.52Z" fill="#444"></path></g></g><style>text {
  font-size: 64px;
  font-family: Arial Black;
  dominant-baseline: central;
  text-anchor: middle;
}</style></svg>